<?xml version="1.0" encoding="UTF-8" standalone="no"?>
<!DOCTYPE svg PUBLIC "-//W3C//DTD SVG 1.1//EN" "http://www.w3.org/Graphics/SVG/1.1/DTD/svg11.dtd">
<svg width="100%" height="100%" viewBox="0 0 45 45" version="1.1" xmlns="http://www.w3.org/2000/svg" xmlns:xlink="http://www.w3.org/1999/xlink" xml:space="preserve" xmlns:serif="http://www.serif.com/" style="fill-rule:evenodd;clip-rule:evenodd;stroke-linejoin:round;">
    <g>
        <path d="M9,26C17.5,24.5 30,24.5 36,26L38.5,13.5L31,25L30.7,10.9L25.5,24.5L22.5,10L19.5,24.5L14.3,10.9L14,25L6.5,13.5L9,26Z" style="fill:white;fill-rule:nonzero;stroke:black;stroke-width:1.5px;"/>
        <path d="M9,26C9,28 10.5,28 11.5,30C12.5,31.5 12.5,31 12,33.5C10.5,34.5 11,36 11,36C9.5,37.5 11,38.5 11,38.5C17.5,39.5 27.5,39.5 34,38.5C34,38.5 35.5,37.5 34,36C34,36 34.5,34.5 33,33.5C32.5,31 32.5,31.5 33.5,30C34.5,28 36,28 36,26C27.5,24.5 17.5,24.5 9,26Z" style="fill:white;fill-rule:nonzero;stroke:black;stroke-width:1.5px;"/>
        <circle cx="6" cy="12" r="2" style="fill:white;stroke:black;stroke-width:1.5px;"/>
        <circle cx="14" cy="9" r="2" style="fill:white;stroke:black;stroke-width:1.5px;"/>
        <circle cx="22.5" cy="8" r="2" style="fill:white;stroke:black;stroke-width:1.5px;"/>
        <circle cx="31" cy="9" r="2" style="fill:white;stroke:black;stroke-width:1.5px;"/>
        <circle cx="39" cy="12" r="2" style="fill:white;stroke:black;stroke-width:1.5px;"/>
    </g>
    <g id="Layer_2" transform="matrix(0.096397,0,0,0.096397,22.696429,20.25)">
        <g id="Layer_1-2">
            <path d="M95.6,217.85C88,216.15 82.36,211.55 77.17,206.73C64.516,195.096 53.372,181.92 44,167.51C37,156.63 31.34,145.06 25.77,133.51C20.95,123.51 17.9,112.68 14.07,102.21C13.29,100.07 12.61,97.87 11.68,95.78C7.8,87.08 5.81,77.9 3.92,68.62C1.16,55.08 0.58,41.41 0,27C1.32,26.27 2.88,25 4.65,24.53C6.625,24.141 8.643,24.02 10.65,24.17C23.872,24.324 36.949,21.393 48.84,15.61C59.38,10.5 69.87,5.29 80.67,0C84.978,1.291 89.067,3.223 92.8,5.73C107.68,15.13 124.09,16.13 140.88,14.8C145.728,14.351 150.366,12.599 154.3,9.73C158.78,6.57 162.66,8.48 163.36,14.05C163.854,18.03 164.035,22.042 163.9,26.05C163.43,39.77 163.22,53.53 162.04,67.21C160.69,82.83 158.92,98.45 156.12,113.91C155.45,116.987 154.602,120.022 153.58,123C149.16,137.49 145.99,152.37 139.87,166.31C138.674,169.217 137.197,172 135.46,174.62C128.76,184.25 122.09,193.92 114.97,203.23C109.89,209.88 103.54,215.21 95.6,217.85ZM154.31,21C153.06,20.926 151.805,20.993 150.57,21.2C143.34,23.33 135.96,23.56 128.48,23.85C114.362,24.414 100.382,20.836 88.27,13.56C85.6,12 82.71,10.8 80.57,9.75C69.84,14.54 59.93,19 50,23.37C39.503,28.025 28.238,30.707 16.77,31.28C14.54,31.4 12.32,31.78 9.77,32.08C9.663,33.865 9.663,35.655 9.77,37.44C11.06,47.37 12.77,57.26 13.68,67.22C14.35,74.47 16.6,81.22 18.96,87.93C20.86,93.32 22.84,98.69 24.55,104.14C30.362,122.435 38.124,140.053 47.7,156.69C53.55,166.94 60.91,176.12 68.59,184.99C74.77,192.12 81.4,198.9 89.12,204.46C91.66,206.29 94.02,208.46 97.82,208.59C99.445,207.631 100.992,206.548 102.45,205.35C104.554,203.409 106.507,201.31 108.29,199.07C111.13,195.48 113.71,191.68 116.49,188.07C124.71,177.34 132.25,166.27 135.49,152.84C135.96,150.9 136.78,149.05 137.41,147.15C142.92,130.54 147.34,113.68 149.51,96.25C150.7,86.59 152.34,76.99 152.22,67.25C152.294,64.957 152.528,62.671 152.92,60.41C154.452,49.344 155.187,38.182 155.12,27.01C154.976,24.992 154.706,22.984 154.31,21Z" style="fill-rule:nonzero;"/>
            <path d="M154.31,21C154.699,22.981 154.963,24.985 155.1,27C155.167,38.172 154.432,49.334 152.9,60.4C152.508,62.661 152.274,64.947 152.2,67.24C152.32,77.03 150.68,86.63 149.49,96.29C147.32,113.72 142.9,130.58 137.39,147.19C136.76,149.09 135.94,150.94 135.47,152.88C132.25,166.31 124.71,177.38 116.47,188.11C113.69,191.74 111.11,195.54 108.27,199.11C106.487,201.35 104.534,203.449 102.43,205.39C100.972,206.588 99.425,207.671 97.8,208.63C94,208.54 91.64,206.33 89.1,204.5C81.4,198.9 74.77,192.12 68.59,185C60.91,176.13 53.59,166.95 47.7,156.7C38.117,140.064 30.349,122.446 24.53,104.15C22.82,98.7 20.84,93.33 18.94,87.94C16.58,81.19 14.33,74.48 13.66,67.23C12.74,57.23 11.04,47.38 9.75,37.45C9.643,35.665 9.643,33.875 9.75,32.09C12.34,31.79 14.56,31.41 16.75,31.29C28.226,30.716 39.498,28.031 50,23.37C59.93,19 69.84,14.54 80.57,9.75C82.71,10.8 85.57,11.99 88.27,13.56C100.387,20.819 114.367,24.379 128.48,23.8C135.96,23.51 143.34,23.28 150.57,21.15C151.807,20.96 153.062,20.91 154.31,21ZM147,55.07C147,52.36 147.25,48.07 146.94,43.79C146.53,38.03 144.31,36.09 138.67,36.53C134.959,36.859 131.28,37.488 127.67,38.41C121.802,39.756 115.706,39.774 109.83,38.46C103.04,37.09 96.42,35.25 90.47,31.76C84.72,28.39 79.84,29.1 74.63,32.94C71.309,35.167 67.742,37.002 64,38.41C53.896,42.545 43.056,44.586 32.14,44.41C24.3,44.41 22.14,45.11 24.2,53.76C26.49,63.5 29.13,73.16 31.37,82.9C34.15,94.96 38.98,106.27 43.91,117.5C49.08,129.26 55.03,140.69 60.65,152.26C63.16,157.42 65.97,162.43 70,166.56C76.58,173.33 83.23,180.05 90.1,186.56C92.262,188.391 94.744,189.808 97.42,190.74C100.34,191.9 102.92,190.97 105.07,188.47C110.87,181.72 115.19,173.96 119.07,166.11C124.5,155.11 128.99,143.64 133.57,132.25C135.9,126.45 138.27,120.6 138.73,114.18C139.061,110.205 139.672,106.259 140.56,102.37C143.85,87.23 147.42,72.22 147,55.07Z" style="fill:rgb(54,54,54);fill-rule:nonzero;"/>
            <path d="M147,55.07C147.47,72.22 143.9,87.23 140.63,102.28C139.742,106.169 139.131,110.115 138.8,114.09C138.34,120.51 135.97,126.36 133.64,132.16C129,143.55 124.52,155 119.09,166C115.21,173.85 110.89,181.61 105.09,188.36C102.94,190.86 100.36,191.79 97.44,190.63C94.764,189.698 92.282,188.281 90.12,186.45C83.25,179.98 76.6,173.26 70.02,166.45C66.02,162.32 63.18,157.31 60.67,152.15C55.05,140.58 49.1,129.15 43.93,117.39C39,106.22 34.17,94.91 31.39,82.85C29.15,73.11 26.51,63.45 24.22,53.71C22.22,45.06 24.32,44.35 32.16,44.36C43.076,44.536 53.916,42.495 64.02,38.36C67.755,36.951 71.315,35.115 74.63,32.89C79.84,29.05 84.72,28.34 90.47,31.71C96.47,35.2 103.04,37.04 109.83,38.41C115.706,39.724 121.802,39.706 127.67,38.36C131.28,37.438 134.959,36.809 138.67,36.48C144.31,36.04 146.53,37.98 146.94,43.74C147.2,48.06 147,52.36 147,55.07ZM99.39,181.92C100.87,180.11 101.99,179.14 102.62,177.92C106.62,170.03 110.95,162.25 114.47,154.13C122,136.76 127.1,118.59 131.64,100.24C135.669,83.808 137.505,66.914 137.1,50C137.1,48.48 136.3,47 135.73,44.94C126.3,47.77 117.21,47.46 108.03,46.94C98.49,46.44 90.93,40.69 82.96,38.33C74.31,41.7 66.42,45.08 58.33,47.86C50.24,50.64 41.7,51.23 32.92,52C33.4,54.54 33.65,56.51 34.15,58.42C36.15,65.9 37.87,73.42 40.23,80.79C43.74,91.67 47.23,102.6 51.59,113.14C55.86,123.42 61.03,133.34 66.23,143.2C69.55,149.49 72.93,156.01 77.58,161.27C84,168.52 91.6,174.67 99.39,181.92Z" style="fill:rgb(38,45,138);fill-rule:nonzero;"/>
            <path d="M99.39,181.92C91.6,174.67 83.97,168.52 77.58,161.29C72.93,156.03 69.58,149.51 66.23,143.22C61.03,133.36 55.86,123.44 51.59,113.16C47.21,102.62 43.74,91.69 40.23,80.81C37.87,73.46 36.11,65.92 34.15,58.44C33.65,56.53 33.4,54.56 32.92,52.02C41.7,51.23 50.27,50.7 58.33,47.93C66.39,45.16 74.33,41.77 82.96,38.4C90.96,40.76 98.49,46.51 108.03,47.01C117.21,47.5 126.3,47.81 135.73,45.01C136.3,47.01 137.07,48.55 137.1,50.07C137.5,66.967 135.664,83.844 131.64,100.26C127.1,118.61 122,136.78 114.47,154.15C110.95,162.27 106.66,170.05 102.62,177.94C102,179.14 100.87,180.11 99.39,181.92Z" style="fill:rgb(205,147,0);fill-rule:nonzero;"/>
        </g>
        <g transform="matrix(-0.00573,-0.904634,-0.904634,0.00573,100.605023,195.575864)">
            <path d="M63.951,243.575C62.006,239.997 59.55,236.668 56.588,233.706C53.482,230.604 49.962,228.073 46.188,226.076C41.678,223.689 45.243,218.576 45.243,218.576C49.859,211.553 54.068,204.497 57.548,198.35L34.185,175.006L11.504,175.006C7.142,175.006 3.606,171.467 3.606,167.104C3.606,162.743 7.142,159.204 11.504,159.204L37.451,159.204C39.551,159.204 41.558,160.036 43.039,161.516L128.418,246.807C129.901,248.29 130.733,250.302 130.733,252.396L130.733,278.469C130.733,282.834 127.196,286.366 122.833,286.366C118.466,286.366 114.929,282.835 114.929,278.469L114.929,255.671L91.659,232.431C85.378,236.138 78.077,240.683 70.843,245.681C70.842,245.679 66.698,248.629 63.951,243.575Z" style="fill:rgb(38,45,138);fill-rule:nonzero;"/>
            <path d="M26.61,237.102C19.504,237.102 12.826,239.866 7.798,244.886C2.779,249.901 0.016,256.572 0.016,263.664C0.016,270.761 2.78,277.426 7.798,282.44C12.825,287.456 19.504,290.223 26.61,290.225C33.712,290.225 40.391,287.455 45.414,282.44C50.437,277.425 53.204,270.758 53.204,263.664C53.204,256.571 50.436,249.9 45.414,244.886C40.392,239.866 33.712,237.102 26.61,237.102Z" style="fill:rgb(205,147,0);fill-rule:nonzero;"/>
            <path d="M100.985,182.318C97.483,185.817 91.753,185.817 88.251,182.319L79.441,173.518C75.939,170.02 75.939,164.295 79.441,160.797L229.832,10.564C233.334,7.066 240.233,3.837 245.162,3.389L282.024,0.037C286.954,-0.411 290.62,3.255 290.172,8.185L286.826,44.976C286.378,49.906 283.146,56.801 279.644,60.3L129.244,210.551C125.742,214.049 120.012,214.049 116.51,210.551L107.688,201.738C104.186,198.24 104.186,192.515 107.688,189.016L233.608,63.213C235.462,61.365 235.464,58.361 233.611,56.511C231.763,54.658 228.758,54.658 226.902,56.509L100.985,182.318Z" style="fill:rgb(113,113,113);fill-rule:nonzero;"/>
        </g>
    </g>
</svg>
