<?xml version="1.0" encoding="UTF-8" standalone="no"?>
<!DOCTYPE svg PUBLIC "-//W3C//DTD SVG 1.1//EN" "http://www.w3.org/Graphics/SVG/1.1/DTD/svg11.dtd">
<svg width="100%" height="100%" viewBox="0 0 45 45" version="1.1" xmlns="http://www.w3.org/2000/svg" xmlns:xlink="http://www.w3.org/1999/xlink" xml:space="preserve" xmlns:serif="http://www.serif.com/" style="fill-rule:evenodd;clip-rule:evenodd;stroke-linecap:round;stroke-linejoin:round;">
    <g transform="matrix(1,0,0,1,0,0.3)">
        <path d="M22,10C32.5,11 38.5,18 38,39L15,39C15,30 25,32.5 23,18" style="fill:white;stroke:black;stroke-width:1.5px;"/>
        <path d="M24,18C24.38,20.91 18.45,25.37 16,27C13,29 13.18,31.34 11,31C9.958,30.06 12.41,27.96 11,28C10,28 11.19,29.23 10,30C9,30 5.997,31 6,26C6,24 12,14 12,14C12,14 13.89,12.1 14,10.5C13.27,9.506 13.5,8.5 13.5,7.5C14.5,6.5 16.5,10 16.5,10L18.5,10C18.5,10 19.28,8.008 21,7C22,7 22,10 22,10" style="fill:white;stroke:black;stroke-width:1.5px;"/>
        <path d="M9.5,25.5C9.5,25.774 9.274,26 9,26C8.726,26 8.5,25.774 8.5,25.5C8.5,25.226 8.726,25 9,25C9.274,25 9.5,25.226 9.5,25.5Z" style="stroke:black;stroke-width:1.5px;"/>
        <g transform="matrix(0.866,0.5,-0.5,0.866,9.693,-5.173)">
            <path d="M15,15.5C15,16.323 14.774,17 14.5,17C14.226,17 14,16.323 14,15.5C14,14.677 14.226,14 14.5,14C14.774,14 15,14.677 15,15.5Z" style="stroke:black;stroke-width:0.4px;"/>
        </g>
        <g transform="matrix(1.300834,0,0,1.019555,-13.687257,-0.287145)">
            <path d="M23.422,9.954L21.58,11.363C21.58,11.363 30.061,14.49 32.311,18.75C34.561,23.01 35.75,29.06 35.25,39L35.2,39.5L37.45,39.5L37.5,39C38,28.94 36.843,21.572 34.473,17.082C32.103,12.592 23.422,9.954 23.422,9.954Z" style="fill:rgb(208,169,89);stroke:rgb(242,213,154);stroke-width:0.86px;stroke-linecap:butt;stroke-miterlimit:2;"/>
        </g>
        <g transform="matrix(1.416593,0,0,1.016883,-12.922581,-0.576246)">
            <path d="M23.422,9.954L21.58,11.363C21.58,11.363 30.061,14.49 32.311,18.75C34.561,23.01 35.75,29.06 35.25,39L35.2,39.5L37.45,39.5L37.5,39C38,28.94 36.843,21.572 34.473,17.082C32.103,12.592 23.422,9.954 23.422,9.954Z" style="fill:rgb(208,169,89);stroke:rgb(242,213,154);stroke-width:0.81px;stroke-linecap:butt;stroke-miterlimit:2;"/>
        </g>
        <g transform="matrix(0.983759,0,0,1.020653,0.610894,-0.8158)">
            <path d="M23.422,9.954L21.58,11.363C21.58,11.363 30.061,14.49 32.311,18.75C34.561,23.01 35.75,29.06 35.25,39L35.2,39.5L37.45,39.5L37.5,39C38,28.94 36.843,21.572 34.473,17.082C32.103,12.592 23.422,9.954 23.422,9.954Z" style="fill:rgb(208,169,89);stroke:rgb(242,213,154);stroke-width:1px;stroke-linecap:butt;stroke-miterlimit:2;"/>
        </g>
    </g>
    <g transform="matrix(-0.031175,0,0,0.031175,16.000553,31.330461)">
        <g transform="matrix(0.999759,0.02194,-0.02194,0.999759,-58.461448,-219.182247)">
            <path d="M513.246,98.735C513.246,72.516 503.027,47.876 484.489,29.359C465.971,10.82 441.331,0.623 415.112,0.623C388.915,0.623 364.253,10.82 345.736,29.338C336.84,38.255 330.163,48.837 325.299,60.207L314.824,49.711C310.835,45.722 305.416,43.46 299.741,43.46C294.066,43.46 288.669,45.721 284.658,49.711L189.639,144.751C181.298,153.071 181.298,166.575 189.639,174.916L222.556,207.833L62.856,378.714C52.104,390.234 47.859,405.274 49.608,419.738C36.275,424.431 21.085,432.517 10.973,446.383C0.819,460.271 -2.36,477.402 1.736,495.919C3.976,505.86 12.787,512.623 22.557,512.623C24.093,512.623 25.629,512.452 27.208,512.111C38.707,509.551 45.96,498.138 43.4,486.639C41.544,478.298 43.485,474.202 45.384,471.578C50.909,463.962 64.051,459.333 73.757,457.221C81.885,462.192 91.037,464.816 100.253,464.816C112.733,464.816 125.256,460.229 135.133,450.992L306.034,291.312L338.951,324.229C342.94,328.24 348.359,330.48 354.034,330.48C359.709,330.48 365.127,328.24 369.117,324.229L464.136,229.21C472.477,220.869 472.477,207.386 464.136,199.045L453.832,188.741C465.139,183.877 475.613,177.008 484.488,168.112C503.027,149.594 513.246,124.954 513.246,98.735ZM354.035,278.98L321.63,246.575C321.63,246.575 321.63,246.554 321.609,246.554L294.473,219.397L234.889,159.834L299.742,94.981L323.465,118.682L323.465,118.703L418.889,214.127L354.035,278.98Z" style="fill:rgb(11,10,87);fill-rule:nonzero;"/>
            <g transform="matrix(-17.2623,-17.660083,-15.680941,15.327738,908.834186,-124.701369)">
                <path d="M10.97,26.457C12.145,27.295 12.145,30.648 10.97,31.486C9.795,32.324 5.093,32.324 3.918,31.486C2.743,30.648 2.743,27.295 3.918,26.457C5.093,25.619 9.795,25.619 10.97,26.457Z" style="fill:rgb(76,0,5);"/>
            </g>
            <g transform="matrix(-32.069046,0.703765,0.756068,34.452389,554.54597,-934.406066)">
                <ellipse cx="5" cy="29.823" rx="3" ry="2.823" style="fill:rgb(80,80,80);stroke:black;stroke-width:0.43px;stroke-miterlimit:1.5;"/>
            </g>
        </g>
    </g>
</svg>
