<?xml version="1.0" encoding="UTF-8" standalone="no"?>
<!DOCTYPE svg PUBLIC "-//W3C//DTD SVG 1.1//EN" "http://www.w3.org/Graphics/SVG/1.1/DTD/svg11.dtd">
<svg width="100%" height="100%" viewBox="0 0 45 45" version="1.1" xmlns="http://www.w3.org/2000/svg" xmlns:xlink="http://www.w3.org/1999/xlink" xml:space="preserve" xmlns:serif="http://www.serif.com/" style="fill-rule:evenodd;clip-rule:evenodd;stroke-linejoin:round;">
    <g transform="matrix(1,0,0,1,0,0.6)">
        <g>
            <path d="M9,36C12.39,35.03 19.11,36.43 22.5,34C25.89,36.43 32.61,35.03 36,36C36,36 37.65,36.54 39,38C38.32,38.97 37.35,38.99 36,38.5C32.61,37.53 25.89,38.96 22.5,37.5C19.11,38.96 12.39,37.53 9,38.5C7.65,38.99 6.68,38.97 6,38C7.35,36.54 9,36 9,36Z" style="fill:white;stroke:black;stroke-width:1.5px;"/>
            <path d="M15,32C17.5,34.5 27.5,34.5 30,32C30.5,30.5 30,30 30,30C30,27.5 27.5,26 27.5,26C33,24.5 33.5,14.5 22.5,10.5C11.5,14.5 12,24.5 17.5,26C17.5,26 15,27.5 15,30C15,30 14.5,30.5 15,32Z" style="fill:rgb(200,144,94);stroke:black;stroke-width:1.5px;"/>
            <g transform="matrix(0.914439,0,0,0.914439,1.925134,1.898396)">
                <path d="M15,32C17.5,34.5 27.5,34.5 30,32C30.5,30.5 30,30 30,30C30,27.5 26.406,26 26.406,26C31.906,24.5 33.5,14.5 22.5,10.5C11.5,14.5 13.094,24.5 18.594,26C18.594,26 15,27.5 15,30C15,30 14.5,30.5 15,32Z" style="fill:rgb(200,144,94);stroke:white;stroke-width:1.5px;"/>
            </g>
            <path d="M25,8C25,9.371 23.871,10.5 22.5,10.5C21.129,10.5 20,9.371 20,8C20,6.629 21.129,5.5 22.5,5.5C23.871,5.5 25,6.629 25,8Z" style="fill:white;stroke:black;stroke-width:1.5px;"/>
        </g>
        <path d="M17.5,26L27.5,26M15,30L30,30M22.5,15.5L22.5,20.5M20,18L25,18" style="fill:white;stroke:rgb(126,82,43);stroke-width:1.5px;stroke-linecap:round;stroke-linejoin:miter;"/>
    </g>
    <g transform="matrix(0.440647,0,0,0.440647,15.501039,-0.187785)">
        <path d="M26.638,11.075C24.1,8.929 22.762,4.717 27.162,2.45C21.265,2.899 20.861,8.96 22.757,11.69C26.001,16.361 25.344,18.707 23.302,20.316C23.078,19.728 22.814,19.142 22.525,18.557C18.101,19.206 13.825,19.767 9.636,18.557C9.268,19.215 8.973,19.873 8.751,20.531C6.49,18.915 5.619,16.573 9.01,11.69C10.907,8.96 10.503,2.899 4.605,2.45C9.005,4.717 7.667,8.929 5.129,11.075C-0.551,15.878 -0.014,23.935 8.827,26.558C9.038,27.123 9.306,27.688 9.636,28.254C13.932,27.826 18.229,27.848 22.525,28.254C22.986,27.617 23.328,26.986 23.568,26.358C31.803,23.546 32.18,15.762 26.638,11.075Z" style="fill-rule:nonzero;"/>
    </g>
</svg>
