<?xml version="1.0" encoding="UTF-8" standalone="no"?>
<!DOCTYPE svg PUBLIC "-//W3C//DTD SVG 1.1//EN" "http://www.w3.org/Graphics/SVG/1.1/DTD/svg11.dtd">
<svg width="100%" height="100%" viewBox="0 0 188 188" version="1.1" xmlns="http://www.w3.org/2000/svg" xmlns:xlink="http://www.w3.org/1999/xlink" xml:space="preserve" xmlns:serif="http://www.serif.com/" style="fill-rule:evenodd;clip-rule:evenodd;stroke-linecap:round;stroke-linejoin:round;stroke-miterlimit:1.5;">
    <g id="White">
        <g transform="matrix(1.058343,-0.085867,0.079076,0.974648,-15.785863,-6.088939)">
            <path d="M108.479,67.139C115.476,67.333 134.136,82.055 136.469,89.221C138.801,96.388 97.577,121.521 97.577,121.521C97.577,121.521 143.126,110.841 145.118,118.127C147.11,125.414 139.983,149.234 134.427,153.857C128.871,158.481 97.577,121.521 97.577,121.521C97.577,121.521 117.549,167.413 111.782,171.722C106.016,176.031 82.951,176.031 77.185,171.722C71.418,167.413 97.577,121.521 97.577,121.521C97.577,121.521 60.096,158.481 54.54,153.857C48.984,149.234 41.857,125.414 43.849,118.127C45.841,110.841 97.577,121.521 97.577,121.521C97.577,121.521 50.166,96.388 52.498,89.221C54.831,82.055 73.491,67.333 80.488,67.139C87.486,66.945 97.577,121.521 97.577,121.521C97.577,121.521 101.481,66.945 108.479,67.139Z" style="fill:rgb(200,35,29);fill-opacity:0.3;stroke:black;stroke-opacity:0.3;stroke-width:1.22px;"/>
        </g>
        <g transform="matrix(1.025566,0.275097,-0.253342,0.944463,27.549058,-36.540239)">
            <path d="M108.479,67.139C115.476,67.333 134.136,82.055 136.469,89.221C138.801,96.388 97.577,121.521 97.577,121.521C97.577,121.521 143.126,110.841 145.118,118.127C147.11,125.414 139.983,149.234 134.427,153.857C128.871,158.481 97.577,121.521 97.577,121.521C97.577,121.521 117.549,167.413 111.782,171.722C106.016,176.031 82.951,176.031 77.185,171.722C71.418,167.413 97.577,121.521 97.577,121.521C97.577,121.521 60.096,158.481 54.54,153.857C48.984,149.234 41.857,125.414 43.849,118.127C45.841,110.841 97.577,121.521 97.577,121.521C97.577,121.521 50.166,96.388 52.498,89.221C54.831,82.055 73.491,67.333 80.488,67.139C87.486,66.945 97.577,121.521 97.577,121.521C97.577,121.521 101.481,66.945 108.479,67.139Z" style="fill:rgb(200,35,29);stroke:black;stroke-width:1.22px;"/>
        </g>
        <g transform="matrix(4.166667,0,0,4.166667,0,0)">
            <path d="M22.5,9C20.29,9 18.5,10.79 18.5,13C18.5,13.89 18.79,14.71 19.28,15.38C17.33,16.5 16,18.59 16,21C16,23.03 16.94,24.84 18.41,26.03C15.41,27.09 11,31.58 11,39.5L34,39.5C34,31.58 29.59,27.09 26.59,26.03C28.06,24.84 29,23.03 29,21C29,18.59 27.67,16.5 25.72,15.38C26.21,14.71 26.5,13.89 26.5,13C26.5,10.79 24.71,9 22.5,9Z" style="fill:white;fill-rule:nonzero;stroke:black;stroke-width:1.5px;stroke-linejoin:miter;stroke-miterlimit:4;"/>
        </g>
    </g>
</svg>
